<mxfile host="app.diagrams.net" agent="Mozilla/5.0 (Windows NT 10.0; Win64; x64) AppleWebKit/537.36 (KHTML, like Gecko) Chrome/139.0.0.0 Safari/537.36" version="28.0.9">
  <diagram name="Page-1" id="3YCg2oQ55NMP7Q8Rrns5">
    <mxGraphModel dx="1577" dy="1083" grid="1" gridSize="16" guides="1" tooltips="1" connect="1" arrows="1" fold="1" page="1" pageScale="1" pageWidth="1920" pageHeight="1200" background="#ffffff" math="0" shadow="0">
      <root>
        <mxCell id="0" />
        <mxCell id="1" parent="0" />
        <mxCell id="FItSna634PTeN5EJkdg9-2" value="" style="shape=folder;fontStyle=1;spacingTop=10;tabWidth=384;tabHeight=64;tabPosition=left;html=1;whiteSpace=wrap;container=0;" parent="1" vertex="1">
          <mxGeometry x="193" y="416" width="427.03448275862064" height="279.99999999999994" as="geometry" />
        </mxCell>
        <mxCell id="FItSna634PTeN5EJkdg9-3" value="Presentation Layer" style="text;strokeColor=none;align=center;fillColor=none;html=1;verticalAlign=middle;whiteSpace=wrap;rounded=0;fontStyle=1;fontSize=28;container=0;" parent="1" vertex="1">
          <mxGeometry x="241.99965517241378" y="440.99777777777774" width="272.82758620689657" height="14.583333333333332" as="geometry" />
        </mxCell>
        <mxCell id="FItSna634PTeN5EJkdg9-4" value="" style="shape=folder;fontStyle=1;spacingTop=10;tabWidth=384;tabHeight=64;tabPosition=left;html=1;whiteSpace=wrap;container=0;" parent="1" vertex="1">
          <mxGeometry x="746.4827586206897" y="416" width="427.03448275862064" height="279.99999999999994" as="geometry" />
        </mxCell>
        <mxCell id="FItSna634PTeN5EJkdg9-5" value="Business Logic Layer" style="text;strokeColor=none;align=center;fillColor=none;html=1;verticalAlign=middle;whiteSpace=wrap;rounded=0;fontStyle=1;fontSize=28;container=0;" parent="1" vertex="1">
          <mxGeometry x="795.48" y="441" width="292.52" height="14.58" as="geometry" />
        </mxCell>
        <mxCell id="FItSna634PTeN5EJkdg9-6" value="" style="shape=folder;fontStyle=1;spacingTop=10;tabWidth=384;tabHeight=64;tabPosition=left;html=1;whiteSpace=wrap;container=0;" parent="1" vertex="1">
          <mxGeometry x="1296.9655172413793" y="416" width="427.03448275862064" height="279.99999999999994" as="geometry" />
        </mxCell>
        <mxCell id="FItSna634PTeN5EJkdg9-7" value="Persistence Layer" style="text;strokeColor=none;align=center;fillColor=none;html=1;verticalAlign=middle;whiteSpace=wrap;rounded=0;fontStyle=1;fontSize=28;container=0;" parent="1" vertex="1">
          <mxGeometry x="1345.965172413793" y="440.99777777777774" width="272.82758620689657" height="14.583333333333332" as="geometry" />
        </mxCell>
        <mxCell id="gmTo6dMUW-eKJxSErPzL-4" value="" style="rounded=1;whiteSpace=wrap;html=1;" vertex="1" parent="1">
          <mxGeometry x="346.52" y="502" width="120" height="32" as="geometry" />
        </mxCell>
        <mxCell id="FItSna634PTeN5EJkdg9-9" value="&lt;font style=&quot;color: light-dark(rgb(0, 0, 0), rgb(79, 174, 222));&quot;&gt;ServiceAPI&lt;/font&gt;" style="text;strokeColor=none;align=center;fillColor=none;html=1;verticalAlign=middle;whiteSpace=wrap;rounded=0;fontSize=16;fontStyle=1" parent="1" vertex="1">
          <mxGeometry x="362.78" y="496" width="87.48" height="30" as="geometry" />
        </mxCell>
        <mxCell id="gmTo6dMUW-eKJxSErPzL-5" value="" style="rounded=1;whiteSpace=wrap;html=1;" vertex="1" parent="1">
          <mxGeometry x="900" y="502" width="120" height="32" as="geometry" />
        </mxCell>
        <mxCell id="FItSna634PTeN5EJkdg9-11" value="&lt;font&gt;Processor&lt;/font&gt;" style="text;strokeColor=none;align=center;fillColor=none;html=1;verticalAlign=middle;whiteSpace=wrap;rounded=0;fontSize=16;fontStyle=1;fontColor=light-dark(#000000,#4FAEDE);" parent="1" vertex="1">
          <mxGeometry x="890" y="496" width="140" height="30" as="geometry" />
        </mxCell>
        <mxCell id="gmTo6dMUW-eKJxSErPzL-6" value="" style="rounded=1;whiteSpace=wrap;html=1;" vertex="1" parent="1">
          <mxGeometry x="1450.48" y="502" width="120" height="32" as="geometry" />
        </mxCell>
        <mxCell id="FItSna634PTeN5EJkdg9-12" value="&lt;font style=&quot;color: light-dark(rgb(0, 0, 0), rgb(79, 174, 222));&quot;&gt;Data&lt;/font&gt;" style="text;strokeColor=none;align=center;fillColor=none;html=1;verticalAlign=middle;whiteSpace=wrap;rounded=0;fontSize=16;fontStyle=1" parent="1" vertex="1">
          <mxGeometry x="1459.85" y="496" width="101.26" height="30" as="geometry" />
        </mxCell>
        <mxCell id="FItSna634PTeN5EJkdg9-13" value="" style="endArrow=classic;html=1;rounded=0;exitX=0;exitY=0;exitDx=427.03448275862064;exitDy=171.99999999999997;exitPerimeter=0;entryX=0;entryY=0;entryDx=0;entryDy=171.99999999999997;entryPerimeter=0;" parent="1" source="FItSna634PTeN5EJkdg9-2" target="FItSna634PTeN5EJkdg9-4" edge="1">
          <mxGeometry width="50" height="50" relative="1" as="geometry">
            <mxPoint x="944" y="626" as="sourcePoint" />
            <mxPoint x="994" y="576" as="targetPoint" />
            <Array as="points" />
          </mxGeometry>
        </mxCell>
        <mxCell id="FItSna634PTeN5EJkdg9-14" value="Uses&lt;div&gt;(via Facade)&lt;/div&gt;" style="text;strokeColor=none;align=center;fillColor=none;html=1;verticalAlign=middle;whiteSpace=wrap;rounded=0;fontColor=light-dark(#000000,#FF3399);" parent="1" vertex="1">
          <mxGeometry x="642" y="553" width="80" height="30" as="geometry" />
        </mxCell>
        <mxCell id="FItSna634PTeN5EJkdg9-15" value="" style="endArrow=classic;html=1;rounded=0;exitX=0;exitY=0;exitDx=427.03448275862064;exitDy=171.99999999999997;exitPerimeter=0;entryX=0;entryY=0;entryDx=0;entryDy=171.99999999999997;entryPerimeter=0;" parent="1" source="FItSna634PTeN5EJkdg9-4" target="FItSna634PTeN5EJkdg9-6" edge="1">
          <mxGeometry width="50" height="50" relative="1" as="geometry">
            <mxPoint x="1173.52" y="599" as="sourcePoint" />
            <mxPoint x="1299.52" y="599" as="targetPoint" />
            <Array as="points" />
          </mxGeometry>
        </mxCell>
        <mxCell id="FItSna634PTeN5EJkdg9-16" value="Uses&lt;div&gt;(via Facade)&lt;/div&gt;" style="text;strokeColor=none;align=center;fillColor=none;html=1;verticalAlign=middle;whiteSpace=wrap;rounded=0;fontColor=light-dark(#000000,#FF3399);" parent="1" vertex="1">
          <mxGeometry x="1195.52" y="554" width="80" height="30" as="geometry" />
        </mxCell>
        <mxCell id="gmTo6dMUW-eKJxSErPzL-1" value="&lt;div&gt;&amp;lt;&amp;lt;Facade&amp;gt;&amp;gt;&lt;/div&gt;" style="text;strokeColor=none;align=center;fillColor=none;html=1;verticalAlign=middle;whiteSpace=wrap;rounded=0;fontColor=light-dark(#000000,#FF3399);" vertex="1" parent="1">
          <mxGeometry x="374.52" y="518" width="64" height="16" as="geometry" />
        </mxCell>
        <mxCell id="gmTo6dMUW-eKJxSErPzL-2" value="&amp;lt;&amp;lt;Facade&amp;gt;&amp;gt;" style="text;strokeColor=none;align=center;fillColor=none;html=1;verticalAlign=middle;whiteSpace=wrap;rounded=0;fontColor=light-dark(#000000,#FF3399);" vertex="1" parent="1">
          <mxGeometry x="928" y="518" width="64" height="16" as="geometry" />
        </mxCell>
        <mxCell id="gmTo6dMUW-eKJxSErPzL-3" value="&amp;lt;&amp;lt;Facade&amp;gt;&amp;gt;" style="text;strokeColor=none;align=center;fillColor=none;html=1;verticalAlign=middle;whiteSpace=wrap;rounded=0;fontColor=light-dark(#000000,#FF3399);" vertex="1" parent="1">
          <mxGeometry x="1478.48" y="518" width="64" height="16" as="geometry" />
        </mxCell>
        <mxCell id="gmTo6dMUW-eKJxSErPzL-7" value="Services" style="rounded=0;whiteSpace=wrap;html=1;" vertex="1" parent="1">
          <mxGeometry x="254.52" y="570" width="120" height="60" as="geometry" />
        </mxCell>
        <mxCell id="gmTo6dMUW-eKJxSErPzL-9" value="API Endpoints" style="rounded=0;whiteSpace=wrap;html=1;" vertex="1" parent="1">
          <mxGeometry x="438.52" y="570" width="120" height="60" as="geometry" />
        </mxCell>
        <mxCell id="gmTo6dMUW-eKJxSErPzL-10" value="User" style="rounded=0;whiteSpace=wrap;html=1;" vertex="1" parent="1">
          <mxGeometry x="832" y="546" width="120" height="60" as="geometry" />
        </mxCell>
        <mxCell id="gmTo6dMUW-eKJxSErPzL-11" value="Place" style="rounded=0;whiteSpace=wrap;html=1;" vertex="1" parent="1">
          <mxGeometry x="968" y="546" width="120" height="60" as="geometry" />
        </mxCell>
        <mxCell id="gmTo6dMUW-eKJxSErPzL-12" value="Review" style="rounded=0;whiteSpace=wrap;html=1;" vertex="1" parent="1">
          <mxGeometry x="832" y="614" width="120" height="60" as="geometry" />
        </mxCell>
        <mxCell id="gmTo6dMUW-eKJxSErPzL-13" value="Amenity" style="rounded=0;whiteSpace=wrap;html=1;" vertex="1" parent="1">
          <mxGeometry x="968" y="614" width="120" height="60" as="geometry" />
        </mxCell>
        <mxCell id="gmTo6dMUW-eKJxSErPzL-14" value="Database" style="rounded=0;whiteSpace=wrap;html=1;" vertex="1" parent="1">
          <mxGeometry x="1358.48" y="570" width="120" height="60" as="geometry" />
        </mxCell>
        <mxCell id="gmTo6dMUW-eKJxSErPzL-15" value="Repositories" style="rounded=0;whiteSpace=wrap;html=1;" vertex="1" parent="1">
          <mxGeometry x="1542.48" y="570" width="120" height="60" as="geometry" />
        </mxCell>
      </root>
    </mxGraphModel>
  </diagram>
</mxfile>
